<?xml version="1.0" encoding="utf-8"?>
<!-- Generator: Adobe Illustrator 26.0.3, SVG Export Plug-In . SVG Version: 6.00 Build 0)  -->
<svg version="1.1" id="Livello_3" xmlns="http://www.w3.org/2000/svg" xmlns:xlink="http://www.w3.org/1999/xlink" x="0px" y="0px"
	 viewBox="0 0 540 148.8" style="enable-background:new 0 0 540 148.8;" xml:space="preserve">
<style type="text/css">
	.st0{fill:#FFFFFF;}
	
		.st1{clip-path:url(#SVGID_00000139258048330780641510000013248804238657541527_);fill:#009640;stroke:#FFFFFF;stroke-width:0.7087;stroke-miterlimit:10;}
	
		.st2{clip-path:url(#SVGID_00000139258048330780641510000013248804238657541527_);fill:#E30613;stroke:#FFFFFF;stroke-width:0.7087;stroke-miterlimit:10;}
</style>
<g>
	<g>
		<defs>
			<path id="SVGID_1_" d="M138.2,131H28.8c-2.9,0-5.4-2.4-5.4-5.4v-2c0-2.9,2.4-5.4,5.4-5.4h109.4c2.9,0,5.4,2.4,5.4,5.4v2
				C143.5,128.6,141.1,131,138.2,131z"/>
		</defs>
		<use xlink:href="#SVGID_1_"  style="overflow:visible;fill:#FFFFFF;"/>
		<clipPath id="SVGID_00000072999837639112672260000001129989340359001736_">
			<use xlink:href="#SVGID_1_"  style="overflow:visible;"/>
		</clipPath>
		<use xlink:href="#SVGID_1_"  style="overflow:visible;fill:none;stroke:#FFFFFF;stroke-width:0.7087;stroke-miterlimit:10;"/>
	</g>
	<path class="st0" d="M508.3,106.4h-7.1c-4.4,0-8.1-3.6-8.1-8.1V23.8c0-4.4,3.6-8.1,8.1-8.1h7.1c4.4,0,8.1,3.6,8.1,8.1v74.6
		C516.4,102.8,512.8,106.4,508.3,106.4z"/>
	<path class="st0" d="M331.6,90.6l-28.9-68.1c-2.1-6.8-5.9-6.8-10.4-6.8h-17.1c-4.5,0-7.9,0-10.4,6.8L236,90.6
		c-2.5,5.7,0.1,12.4,5.9,14.9c5.7,2.5,16.2,0.9,18.9-5.9l5.9-13.6h34.2l5.9,13.6c2.1,6.8,10,6.8,14.4,6.8c1.5,0,3-0.3,4.5-0.9
		C331.5,103,334.1,96.3,331.6,90.6z M274.6,63.3l8.2-23l9.3,23H274.6z"/>
	<path class="st0" d="M129,106.4c-8.4,0.5-11-3.7-12.1-9.1l-8.2-45.3L89.5,86.9c-1.8,3-3.1,4.9-6.6,4.9h-1.4c-3.7,0-5.2-2.6-7.1-5.8
		L56.7,53.6L48,98.4c-3,9.8-15.2,10-19.9,6.3c-3-2.4-4.2-6.3-3.5-10l13-71.5c0.9-4.7,6.1-8.1,10.9-8.1H55c2.7,0,6.1,1.9,7.5,4.2
		l19.7,33l18.2-31.7c2.1-3.4,6.7-5.5,10.7-5.5h5c4.8,0,9.9,3.4,10.9,8.1l13.2,69.8c1.2,6.1,0.2,12-8.9,13.4
		C130.5,106.3,129.8,106.4,129,106.4z"/>
	<path class="st0" d="M405,85.3c0-3.4-5.3-5.7-8.5-4.8c-7,2.1-15.1,2.5-19.5,2.2c-10.4-0.9-18.8-8.2-20-18.5
		c-1.5-13.3,7.2-22.4,19.9-25.2c7.8-1.7,13.6,1,20.1,3.2c3.3,1.1,7.9-1.8,7.9-6.9l0-9c0-3.4-2.5-5.9-5.7-6.9
		c-4.5-1.4-8.9-3.5-20.2-3.5c-25.7,0-46.4,22.7-44.7,48.8c1.4,21.4,18.2,39,39.5,41.5c6.2,0.7,20.4,0.3,28.9-5.1
		c1.4-0.9,2.2-2.5,2.2-4.2V85.3z"/>
	<path class="st0" d="M482.4,85.3c0-3.4-5.3-5.7-8.5-4.8c-7,2.1-15.1,2.5-19.5,2.2c-10.4-0.9-18.8-8.2-20-18.5
		c-1.5-13.3,7.2-22.4,19.9-25.2c7.8-1.7,13.6,1,20.1,3.2c3.3,1.1,7.9-1.8,7.9-6.9l0-9c0-3.4-2.5-5.9-5.7-6.9
		c-4.5-1.4-8.9-3.5-20.2-3.5c-25.7,0-46.4,22.7-44.7,48.8c1.4,21.4,18.2,39,39.5,41.5c6.2,0.7,20.4,0.3,28.9-5.1
		c1.4-0.9,2.2-2.5,2.2-4.2V85.3z"/>
	<path class="st0" d="M218,37.6c0.6,0,1.2-0.1,1.8-0.1h1.6c4.4,0,8-3.6,8-8v-6.3c0-4.4-3.6-8-8-8h-1.9c-0.6-0.1-1.2-0.1-1.8-0.1
		h-54.1c-0.6,0-1.2,0.1-1.8,0.1h-1.6c-4.4,0-8,3.6-8,8v3.2v3.2v62.5v3.2v3.2c0,4.4,3.6,8,8,8h1.6c0.6,0.1,1.2,0.1,1.8,0.1H218
		c0.6,0,1.2-0.1,1.8-0.1h1.6c4.4,0,8-3.6,8-8v-6.3c0-4.4-3.6-8-8-8h-1.9c-0.6-0.1-1.2-0.1-1.8-0.1h-40.8V71.9h26.4c4.4,0,8-3.6,8-8
		v-6.3c0-4.4-3.6-8-8-8h-26.4V37.6H218z"/>
	<g>
		<defs>
			<path id="SVGID_00000157303757660993820890000001944657638559175097_" d="M138.2,131H28.8c-2.9,0-5.4-2.4-5.4-5.4v-2
				c0-2.9,2.4-5.4,5.4-5.4h109.4c2.9,0,5.4,2.4,5.4,5.4v2C143.5,128.6,141.1,131,138.2,131z"/>
		</defs>
		<clipPath id="SVGID_00000182523889661080694500000010537518574583239829_">
			<use xlink:href="#SVGID_00000157303757660993820890000001944657638559175097_"  style="overflow:visible;"/>
		</clipPath>
		
			<rect x="23.5" y="110.7" style="clip-path:url(#SVGID_00000182523889661080694500000010537518574583239829_);fill:#009640;stroke:#FFFFFF;stroke-width:0.7087;stroke-miterlimit:10;" width="39.7" height="26.2"/>
		
			<rect x="103.8" y="110.7" style="clip-path:url(#SVGID_00000182523889661080694500000010537518574583239829_);fill:#E30613;stroke:#FFFFFF;stroke-width:0.7087;stroke-miterlimit:10;" width="39.7" height="26.2"/>
		
			<use xlink:href="#SVGID_00000157303757660993820890000001944657638559175097_"  style="overflow:visible;fill:none;stroke:#FFFFFF;stroke-miterlimit:10;"/>
	</g>
	<g>
		<path class="st0" d="M154.4,120.3h3.5l-2.3,10.6h-3.5L154.4,120.3z"/>
		<path class="st0" d="M167.4,120.3h11.3l-0.5,2.4h-3.9l-1.8,8.2H169l1.8-8.2h-3.9L167.4,120.3z"/>
		<path class="st0" d="M190.4,120.3h4.3l2.3,10.6h-3.8l-0.3-1.7h-4.6l-1,1.7h-3.8L190.4,120.3z M191.9,123L191.9,123l-2.4,4h3
			L191.9,123z"/>
		<path class="st0" d="M208.2,120.3h3.5l-1.7,8.1h6.5l-0.5,2.5h-10L208.2,120.3z"/>
		<path class="st0" d="M227.9,120.3h3.5l-2.3,10.6h-3.5L227.9,120.3z"/>
		<path class="st0" d="M245,120.3h4.3l2.3,10.6h-3.8l-0.3-1.7h-4.6l-1,1.7h-3.8L245,120.3z M246.6,123L246.6,123l-2.4,4h3L246.6,123
			z"/>
		<path class="st0" d="M262.9,120.3h4.1l3.5,6.6h0l1.4-6.6h3.4l-2.3,10.6h-3.9l-3.7-6.7h0l-1.4,6.7h-3.4L262.9,120.3z"/>
		<path class="st0" d="M299.8,120.3h10.6l-0.5,2.3h-7.1l-0.4,1.9h6.6l-0.5,2.2H302l-0.4,1.9h7.1l-0.5,2.3h-10.6L299.8,120.3z"/>
		<path class="st0" d="M320.2,120.3h4.1l3.5,6.6h0l1.4-6.6h3.4l-2.3,10.6h-3.9l-3.7-6.7h0l-1.4,6.7H318L320.2,120.3z"/>
		<path class="st0" d="M349.2,124.9h5.7l-1.3,6H352l-0.2-1.1c-0.6,0.5-2.1,1.4-4.9,1.4c-4.6,0-6.2-2-5.5-5.6
			c0.7-3.1,3.3-5.6,7.8-5.6c2.9,0,6.1,0.8,5.9,3.8h-4c0-0.8-0.5-1.5-2.2-1.5c-2.2,0-3.5,1.5-3.9,3.4c-0.4,1.8,0.3,3.3,2.4,3.3
			c1.7,0,2.8-0.7,3.4-1.9h-2.2L349.2,124.9z"/>
		<path class="st0" d="M366.3,120.3h3.5l-2.3,10.6h-3.5L366.3,120.3z"/>
		<path class="st0" d="M380.4,120.3h4.1l3.5,6.6h0l1.4-6.6h3.4l-2.3,10.6h-3.9l-3.7-6.7h0l-1.4,6.7h-3.4L380.4,120.3z"/>
		<path class="st0" d="M403.2,120.3h10.6l-0.5,2.3h-7.1l-0.4,1.9h6.6l-0.5,2.2h-6.6l-0.4,1.9h7.1l-0.5,2.3H401L403.2,120.3z"/>
		<path class="st0" d="M423.7,120.3h10.6l-0.5,2.3h-7.1l-0.4,1.9h6.6l-0.5,2.2h-6.6l-0.4,1.9h7.1l-0.5,2.3h-10.6L423.7,120.3z"/>
		<path class="st0" d="M444.1,120.3h8.5c2.6,0,3.3,1.2,2.9,3c-0.3,1.4-1.2,2.2-2.2,2.4l0,0c0.6,0.2,1,0.8,0.9,1.9
			c-0.3,2.1-0.4,2.8,0,3.3h-3.9c-0.1-0.5,0-1.1,0.1-1.6c0.3-1.7-0.1-2-1-2h-3.2l-0.8,3.5h-3.5L444.1,120.3z M446.6,125h3.4
			c0.9,0,1.4-0.4,1.6-1.2c0.1-0.7-0.2-1.1-1.1-1.1h-3.4L446.6,125z"/>
		<path class="st0" d="M466.2,120.3h3.5l-2.3,10.6h-3.5L466.2,120.3z"/>
		<path class="st0" d="M480.2,120.3h4.1l3.5,6.6h0l1.4-6.6h3.4l-2.3,10.6h-3.9l-3.7-6.7h0l-1.4,6.7H478L480.2,120.3z"/>
		<path class="st0" d="M509.2,124.9h5.7l-1.3,6H512l-0.2-1.1c-0.6,0.5-2.1,1.4-4.9,1.4c-4.6,0-6.2-2-5.5-5.6
			c0.7-3.1,3.3-5.6,7.8-5.6c2.9,0,6.1,0.8,5.9,3.8h-4c0-0.8-0.5-1.5-2.2-1.5c-2.2,0-3.5,1.5-3.9,3.4c-0.4,1.8,0.3,3.3,2.4,3.3
			c1.7,0,2.8-0.7,3.4-1.9h-2.2L509.2,124.9z"/>
	</g>
</g>
</svg>
